<?xml version="1.0" standalone="no"?><!DOCTYPE svg PUBLIC "-//W3C//DTD SVG 1.1//EN" "http://www.w3.org/Graphics/SVG/1.1/DTD/svg11.dtd"><svg t="1539833198613" class="icon" style="" viewBox="0 0 1024 1024" version="1.1" xmlns="http://www.w3.org/2000/svg" p-id="1716" xmlns:xlink="http://www.w3.org/1999/xlink" width="200" height="200"><defs><style type="text/css"></style></defs><path d="M888.78694078 317.1407052c-32.4880933-173.2712131-192.99484609-306.72663853-377.51087663-306.72663852-189.60773585 0-353.34010919 129.72325453-377.50949542 306.72663852-47.51200788 11.21997246-70.78285824 37.74128833-70.78285828 70.78285829l0 188.75474771c0 41.2457176 30.73656927 70.78285824 70.78285828 70.78285821 32.71997446 0 57.51184892-6.88877848 70.78285824-23.59520549 32.07264127 86.45272483 98.13369712 150.55245954 117.97188946 165.16230188 24.60830218 18.13221608 75.06850441 27.0485677 70.78285824 23.59244586-25.29980333-20.41375294-72.34943015-85.94341617-94.37668393-188.75474774-11.08332908-51.819738 7.99573174-110.52825455 47.18903257-117.97050964 62.92515108-11.93631722 139.58369119 7.74176661 188.75474772-23.5952055 39.00972853-24.8388021 57.46630109-54.07781109 70.78285824-70.78285827 5.9446948-7.46571891 18.27161909-29.03197285 23.59382573-47.18903254 4.56445487-11.98186499 23.08865788-0.66803597 23.59520548 0 0 0 82.62669872 27.12033893 94.37806379 188.75612753 8.11167226 110.9202428-78.24857718 243.54614256-94.37806379 259.53622616-2.44302518 2.39747741-1.06002425 0.25534488 0 0 94.56301591-22.87886211 147.23436223-127.28022934 165.16092206-212.34857341 12.18752127 15.06808253 20.55453713 42.02693313 47.18765136 47.18765141-26.79736358 134.00890068-166.42660258 237.21084067-283.13281151 259.53760591-16.91208329-32.64958163-25.66832642-47.18765139-70.78285824-47.18765135-49.35462886 0-70.78423808 36.24510784-70.78423808 70.78285824 0 32.4880933 21.91269306 70.5979061 70.27769043 70.59790613 45.85295926 0 67.09623652-15.85205907 71.28940589-47.00546025 202.99468575-54.21445441 273.38555573-131.31329158 330.32046428-306.72663853 39.26369226-10.64579304 47.18903258-30.87459245 47.18903254-70.78285826L959.56841786 387.92356349C959.5697977 317.73834982 888.99397555 318.24627728 888.78694078 317.1407052zM794.40887565 387.92356349c-56.40489569-157.60272637-166.72749526-212.34995459-283.1328115-212.3499546-117.28038966 0-250.64471819 56.12884795-306.72663851 212.3499546-2.39747741-2.94957283-20.87613262-21.01415715-23.59520555-23.59520552 27.00577956-157.99471465 169.49349578-283.13143164 330.32046423-283.13143168 160.04713273 0 278.84578551 126.2436689 306.72801836 283.13143168C808.07325443 377.92372246 794.40887565 387.92356349 794.40887565 387.92356349z" p-id="1717" fill="#000"></path></svg>