<?xml version="1.0" standalone="no"?><!DOCTYPE svg PUBLIC "-//W3C//DTD SVG 1.1//EN" "http://www.w3.org/Graphics/SVG/1.1/DTD/svg11.dtd"><svg t="1546350222494" class="icon" style="" viewBox="0 0 1024 1024" version="1.1" xmlns="http://www.w3.org/2000/svg" p-id="5028" xmlns:xlink="http://www.w3.org/1999/xlink" width="200" height="200"><defs><style type="text/css"></style></defs><path d="M901.052463 174.162886c-53.517738-53.517738-124.124313-80.225442-194.526231-80.225442s-141.008494 26.707705-194.526232 80.225442L325.148396 360.912161c-25.479764 25.479764-25.479764 66.922754 0 92.30019 25.479764 25.479764 66.922754 25.479764 92.30019 0L599.695413 270.965524c8.288598-8.288598 21.795943-8.288598 30.186869 0l281.30069 281.30069c96.70031-107.547117 93.323474-274.751674-10.130509-378.103328z" fill="#999999" p-id="5029"></path><path d="M614.021385 317.115619L447.635455 483.501549c-42.05696 42.05696-110.616968 42.05696-152.673928 0-42.05696-42.05696-42.05696-110.616968 0-152.673928L479.459578 146.329569c-47.992006-34.893974-105.091236-52.392126-161.98581-52.392125-70.401919 0-141.008494 26.707705-194.526231 80.225442-106.933147 106.933147-106.933147 282.119316 0 389.052463l171.297691 171.297692s0.102328 0.102328 0.102329 0.204657l179.893274 179.893274c20.772659 20.772659 54.64335 20.772659 75.416009 0 19.954032-19.954032 20.465674-52.08514 1.944239-72.960128L420.211452 710.05656c-6.139702-6.139702-6.139702-16.270211 0-22.512241 6.139702-6.139702 16.270211-6.139702 22.512241 0L572.066753 816.78505c20.772659 20.772659 54.64335 20.772659 75.416009 0 20.670331-20.670331 20.670331-54.336365 0.204657-75.109023L518.651344 612.639952c-6.139702-6.139702-6.139702-16.270211 0-22.512241 6.139702-6.139702 16.270211-6.139702 22.512241 0l129.752374 129.752373c20.772659 19.749375 53.927051 19.44239 74.290397-0.920955 20.772659-20.772659 20.772659-54.64335 0-75.416009L615.965624 514.097732c-6.139702-6.139702-6.139702-16.270211 0-22.512242 6.139702-6.139702 16.270211-6.139702 22.512241 0l131.389628 131.389627c20.874988 18.726092 53.210752 18.316778 73.267113-1.739582 20.772659-20.772659 20.772659-54.64335 0-75.416009L614.021385 317.115619z" fill="#0177c2" p-id="5030"></path></svg>